<svg xmlns="http://www.w3.org/2000/svg" width="64" height="64" viewBox="0 0 64 64">
  <rect x="30.5" y="42" width="3" height="20" rx="1.5" fill="#3f7d2f"/>
  <g fill="#2fa244" stroke="#1f6b2a" stroke-width="1.1" stroke-linejoin="round">
    <g transform="translate(32 46)">
      <path id="lf" d="M0,0 L-2,-6 L-4,-11 L-2,-13 L-5,-19 L-3,-21 L-5,-29 L-3,-31 L-4,-38 L-2,-42 L0,-46 L2,-42 L4,-38 L3,-31 L5,-29 L3,-21 L5,-19 L2,-13 L4,-11 L2,-6 Z"/>
      <use href="#lf" transform="rotate(28) scale(0.84)"/>
      <use href="#lf" transform="rotate(-28) scale(0.84)"/>
      <use href="#lf" transform="rotate(55) scale(0.62)"/>
      <use href="#lf" transform="rotate(-55) scale(0.62)"/>
      <use href="#lf" transform="rotate(80) scale(0.42)"/>
      <use href="#lf" transform="rotate(-80) scale(0.42)"/>
    </g>
  </g>
  <line x1="32" y1="44" x2="32" y2="8" stroke="#1f6b2a" stroke-width="0.7" opacity="0.5"/>
</svg>
