<svg xmlns="http://www.w3.org/2000/svg" width="64" height="64" viewBox="0 0 64 64">
  <path d="M32 60 C 30 44 30 30 32 13" fill="none" stroke="#6a4a2a" stroke-width="2.6" stroke-linecap="round"/>
  <g fill="#3f9e3f" stroke="#2b6e2a" stroke-width="1" stroke-linejoin="round">
    <ellipse cx="19" cy="47" rx="11" ry="5.2" transform="rotate(-22 19 47)"/>
    <ellipse cx="45" cy="41" rx="11" ry="5.2" transform="rotate(22 45 41)"/>
    <ellipse cx="21" cy="31" rx="10" ry="4.8" transform="rotate(-18 21 31)"/>
    <ellipse cx="44" cy="25" rx="10" ry="4.8" transform="rotate(18 44 25)"/>
    <ellipse cx="32" cy="14" rx="7.5" ry="4.2"/>
  </g>
  <g stroke="#2b6e2a" stroke-width="0.8" fill="none" opacity="0.75">
    <path d="M10 49 L28 45" transform="rotate(-22 19 47)"/>
    <path d="M36 43 L54 39" transform="rotate(22 45 41)"/>
    <path d="M12 32 L30 30" transform="rotate(-18 21 31)"/>
    <path d="M35 26 L53 24" transform="rotate(18 44 25)"/>
    <path d="M25 14 L39 14"/>
  </g>
</svg>
