<svg xmlns="http://www.w3.org/2000/svg" width="64" height="64" viewBox="0 0 64 64">
  <path d="M32 60 C 31 46 31 30 32 15" fill="none" stroke="#9c4f2a" stroke-width="2.6" stroke-linecap="round"/>
  <g fill="none" stroke="#9c4f2a" stroke-width="1.8" stroke-linecap="round">
    <path d="M32 44 C 25 42 20 38 16 32"/>
    <path d="M32 36 C 39 34 44 30 48 24"/>
    <path d="M32 26 C 28 24 25 21 23 16"/>
  </g>
  <g fill="#5fb83f" stroke="#3c8a2a" stroke-width="0.9" stroke-linejoin="round">
    <ellipse cx="14" cy="30" rx="6.5" ry="3.4" transform="rotate(-32 14 30)"/>
    <ellipse cx="11" cy="35" rx="6.5" ry="3.4" transform="rotate(-8 11 35)"/>
    <ellipse cx="50" cy="22" rx="6.5" ry="3.4" transform="rotate(32 50 22)"/>
    <ellipse cx="53" cy="27" rx="6.5" ry="3.4" transform="rotate(8 53 27)"/>
    <ellipse cx="20" cy="14" rx="5.5" ry="3" transform="rotate(-22 20 14)"/>
    <ellipse cx="32" cy="11" rx="5.5" ry="3"/>
  </g>
  <g fill="#c75b39" opacity="0.55">
    <ellipse cx="14" cy="30" rx="2.6" ry="1.4" transform="rotate(-32 14 30)"/>
    <ellipse cx="50" cy="22" rx="2.6" ry="1.4" transform="rotate(32 50 22)"/>
    <ellipse cx="32" cy="11" rx="2.2" ry="1.2"/>
  </g>
</svg>
