<svg xmlns="http://www.w3.org/2000/svg" width="64" height="64" viewBox="0 0 64 64">
  <!-- small mushroom -->
  <path d="M44 50 q-1 7 0 9 q3 2 6 0 q1 -2 0 -9 Z" fill="#f1e6cd" stroke="#c4b083" stroke-width="0.9"/>
  <path d="M37 50 q2 -12 10 -12 q8 0 10 12 q-10 3 -20 0 Z" fill="#e8553f" stroke="#a8241b" stroke-width="1"/>
  <g fill="#fbeede"><circle cx="44" cy="45" r="1.7"/><circle cx="50" cy="47" r="1.5"/><circle cx="40" cy="47" r="1.3"/></g>
  <!-- big mushroom -->
  <path d="M26 41 q-3 14 0 18 q6 3 12 0 q3 -4 0 -18 Z" fill="#f3e9d2" stroke="#c9b88f" stroke-width="1.1"/>
  <path d="M13 42 q3 -23 19 -23 q16 0 19 23 q-19 6 -38 0 Z" fill="#e03b2f" stroke="#a8241b" stroke-width="1.3"/>
  <g fill="#fbeede"><circle cx="23" cy="33" r="2.7"/><circle cx="34" cy="28" r="3.2"/><circle cx="43" cy="35" r="2.5"/><circle cx="30" cy="37" r="2.1"/><circle cx="40" cy="29" r="1.8"/></g>
</svg>
