<svg xmlns="http://www.w3.org/2000/svg" width="64" height="64" viewBox="0 0 64 64">
  <rect x="30.5" y="12" width="3" height="48" rx="1.5" fill="#5a8a3a"/>
  <g fill="#4a9a3a" stroke="#357026" stroke-width="1.1" stroke-linejoin="round">
    <path d="M31 53 q-19 3 -24 -8 q15 -9 24 -2 Z"/>
    <path d="M33 53 q19 3 24 -8 q-15 -9 -24 -2 Z"/>
    <path d="M31 41 q-16 2 -21 -8 q13 -8 21 -2 Z"/>
    <path d="M33 41 q16 2 21 -8 q-13 -8 -21 -2 Z"/>
    <path d="M31 30 q-12 1 -16 -7 q9 -6 16 -2 Z"/>
    <path d="M33 30 q12 1 16 -7 q-9 -6 -16 -2 Z"/>
  </g>
  <g stroke="#357026" stroke-width="0.7" fill="none" opacity="0.65">
    <path d="M31 53 q-12 -1 -20 -6"/><path d="M33 53 q12 -1 20 -6"/>
    <path d="M31 41 q-10 -1 -17 -5"/><path d="M33 41 q10 -1 17 -5"/>
  </g>
  <g fill="#f3a6c4" stroke="#d97aa6" stroke-width="0.8">
    <circle cx="32" cy="11" r="4.2"/><circle cx="26" cy="14" r="3.2"/><circle cx="38" cy="14" r="3.2"/>
  </g>
  <g fill="#fbd9e7"><circle cx="32" cy="11" r="1.6"/><circle cx="26" cy="14" r="1.2"/><circle cx="38" cy="14" r="1.2"/></g>
</svg>
